Coordinates
version=1
nRows=14
nColumns=42
inDegrees=yes

Units are S.I. units (second, meters, Newtons, ...)
If the header above contains a line with 'inDegrees', this indicates whether rotational values are in degrees (yes) or radians (no).

endheader
time	pelvis_tilt	pelvis_list	pelvis_rotation	pelvis_tx	pelvis_ty	pelvis_tz	hip_flexion_r	hip_adduction_r	hip_rotation_r	knee_angle_r	knee_angle_r_beta	ankle_angle_r	subtalar_angle_r	mtp_angle_r	hip_flexion_l	hip_adduction_l	hip_rotation_l	knee_angle_l	knee_angle_l_beta	ankle_angle_l	subtalar_angle_l	mtp_angle_l	lumbar_extension	lumbar_bending	lumbar_rotation	sh_tx_r	sh_ty_r	sh_tz_r	sh_plane_elev_r	sh_elev_r	sh_axial_rot_r	elbow_flex_r	pro_sup_r	sh_tx_l	sh_ty_l	sh_tz_l	sh_plane_elev_l	sh_elev_l	sh_axial_rot_l	elbow_flex_l	pro_sup_l
      0.00000000	     -5.15965373	     -1.67440631	      0.35758998	      0.29531133	      0.93690390	     -0.04640100	      5.26429083	     -4.02009083	      1.23128744	      6.26858792	      0.10940750	      1.50067682	     -7.90772205	     -4.87140542	      4.54245528	     -6.15811487	     -2.27247896	      5.38656360	      0.09401327	     12.06010546	     -2.18915329	     -4.87140542	     -0.45341028	      1.61026791	     -1.79817139	     -0.00034387	     -0.01718098	     -0.00536170	      8.94222756	      9.44243270	     -0.05218702	     25.57734562	     77.49069026	     -0.00322237	     -0.01370561	     -0.00436526	      8.79006994	     10.24146537	     -1.05361048	     23.51590030	     71.87020634
      0.01666670	     -7.01194144	     -1.46385592	      0.46025459	      0.29765294	      0.93368434	     -0.04688527	      6.65236980	     -4.43874273	      1.35773382	      5.47111838	      0.09548903	      4.18327151	     -4.32803130	     -5.71387193	      6.52820328	     -5.73126766	     -2.06150126	      4.47403363	      0.07808662	     11.23293554	     -0.85702156	     -5.71387193	      2.84869147	      1.40766368	     -2.42531985	      0.00109072	     -0.01652458	     -0.00557564	      1.45854422	      7.80631659	      0.78843784	     25.37393575	     78.95787985	     -0.00243211	     -0.01298857	     -0.00465995	     -0.51869784	      8.55356732	     -1.71796380	     24.24862336	     74.21751409
      0.03333330	     -7.44276456	     -1.02913621	      0.15840597	      0.29787864	      0.93292549	     -0.04643996	      6.67335375	     -5.17044695	      0.77074775	      4.55031852	      0.07941804	      4.66310324	     -3.05911649	     -5.69432272	      6.58000257	     -5.44864537	     -3.11899718	      3.76149854	      0.06565053	     10.72217119	      0.63192373	     -5.69432272	      3.28442074	      0.76439322	     -2.57576331	      0.00040377	     -0.01627383	     -0.00528563	      0.60938856	      7.23063958	     -0.54525834	     25.80687654	     78.56733391	     -0.00395925	     -0.01316393	     -0.00461509	     -0.95181067	      9.04227042	     -2.45123364	     24.61277670	     73.99822479
      0.05000000	     -7.16120405	     -0.70825269	      0.23331655	      0.29793667	      0.93389886	     -0.04651010	      6.04143500	     -5.63315321	      0.50043840	      3.82806890	      0.06681241	      5.22655922	     -2.09024895	     -5.89815526	      5.71005745	     -5.15594059	     -3.10959081	      2.81055090	      0.04905337	     10.20607060	      0.92087591	     -5.89815526	      3.04700663	      0.24822428	     -2.82828034	      0.00170894	     -0.01644987	     -0.00526262	     -1.85506487	      6.68906851	      1.26563187	     26.08711964	     77.51238931	     -0.00393099	     -0.01390200	     -0.00425646	     -2.82470268	      9.49662492	     -2.13240099	     25.64915007	     72.53794353
      0.06666670	     -6.90939514	     -0.57334154	      0.14794487	      0.29791593	      0.93714202	     -0.04655691	      5.44707358	     -5.82256370	      0.21801617	      3.14518415	      0.05489382	      5.55242120	     -1.05457537	     -6.10442174	      5.02482618	     -5.05663037	     -3.40868509	      2.13545653	      0.03727075	      9.99273672	      1.34619703	     -6.10442174	      2.82884525	      0.09714994	     -2.86557961	      0.00225026	     -0.01669862	     -0.00513265	     -1.39919907	      6.51571916	      1.54955684	     26.30965296	     76.42336034	     -0.00319860	     -0.01433619	     -0.00410955	     -3.38807492	      9.99018360	     -2.17012275	     26.17344849	     71.37616583
      0.08333330	     -6.71683030	     -0.54882565	      0.12430615	      0.29774712	      0.93483715	     -0.04651452	      5.10351803	     -5.79863813	      0.26241453	      2.87079070	      0.05010475	      5.91374837	     -0.54021584	     -6.41395700	      4.63093764	     -5.02784463	     -3.35449803	      1.83338742	      0.03199865	      9.85780121	      1.22647634	     -6.41395700	      2.66343246	      0.05847121	     -3.02555613	      0.00351482	     -0.01686339	     -0.00499564	     -0.26440505	      6.40361967	      1.59451172	     26.26672397	     74.79477817	     -0.00238648	     -0.01476341	     -0.00402451	     -3.21179605	     10.42879132	     -3.15613794	     26.79790536	     69.74451697
      0.10000000	     -6.50225260	     -0.58517491	      0.15781883	      0.29758147	      0.93536233	     -0.04656095	      4.77819401	     -5.75671191	      0.13913838	      2.75203126	      0.04803201	      6.06308928	     -0.36056457	     -6.47311675	      4.31084859	     -5.07384825	     -3.32522363	      1.63573638	      0.02854899	      9.69435240	      1.11289703	     -6.47311675	      2.47271410	      0.09171767	     -3.00163207	      0.00477905	     -0.01698528	     -0.00484799	      0.70435197	      6.28932893	      1.73532588	     26.47183812	     74.40150991	     -0.00074185	     -0.01506383	     -0.00390051	     -3.23494921	     10.66573146	     -3.78606906	     27.58129590	     68.92742127
      0.11666670	     -6.32616858	     -0.59538632	      0.14365268	      0.29757223	      0.93601499	     -0.04669006	      4.49947046	     -5.74185633	      0.16479121	      2.64362256	      0.04613992	      6.12184997	     -0.28121699	     -6.51736120	      4.05373721	     -5.08659408	     -3.33226200	      1.50541009	      0.02627436	      9.55049103	      1.05546137	     -6.51736120	      2.40610490	      0.06186310	     -3.00161016	      0.00566867	     -0.01699369	     -0.00478191	      1.87980899	      6.27831563	      1.72598982	     26.57949069	     73.70734030	      0.00096112	     -0.01508680	     -0.00385038	     -3.18176711	     10.93020958	     -4.38374497	     28.23454189	     67.99496176
      0.13333330	     -6.18250799	     -0.56897221	      0.17247060	      0.29755241	      0.93929827	     -0.04692339	      4.24966211	     -5.77024974	      0.09959774	      2.49716715	      0.04358379	      6.02564866	     -0.28420800	     -6.51058048	      3.88121326	     -5.06191238	     -3.40629210	      1.43547498	      0.02505376	      9.35311529	      1.14574724	     -6.51058048	      2.27399510	      0.03143428	     -3.08361415	      0.00693997	     -0.01703143	     -0.00472295	      3.09527618	      6.24781498	      1.65541338	     26.81733579	     73.49146594	      0.00170524	     -0.01507525	     -0.00379931	     -2.94229626	     11.14514324	     -5.06246228	     28.92044168	     67.33922056
      0.15000000	     -6.12233618	     -0.56325806	      0.09956096	      0.29313059	      0.93636704	     -0.05098612	      4.26353417	     -5.86232439	      0.01059113	      2.53426433	      0.04423126	      5.98164335	      0.07921768	     -6.66695054	      3.86204272	     -5.00975185	     -3.49772630	      1.41538735	      0.02470317	      9.23316188	      1.19399118	     -6.66695054	      2.22161253	      0.11745467	     -3.00190125	      0.00796429	     -0.01705154	     -0.00469066	      4.24599576	      6.47162131	      1.45876112	     27.26536432	     72.61449339	      0.00360024	     -0.01517856	     -0.00374398	     -3.07563858	     11.24961306	     -5.59155048	     29.59946365	     66.27344770
      0.16666670	     -6.12653947	     -0.52852812	      0.12099812	      0.29329501	      0.93959216	     -0.05118836	      4.30907510	     -5.94849413	      0.00520246	      2.50463153	      0.04371407	      5.69562799	      0.09064637	     -6.71699082	      3.87011793	     -4.91190372	     -3.42598351	      1.27436246	      0.02224182	      8.93280826	      1.12990923	     -6.71699082	      2.20817294	      0.11504221	     -3.13649029	      0.00929060	     -0.01706505	     -0.00472998	      5.49349938	      6.61417845	      1.22930960	     27.33475993	     71.94523215	      0.00421169	     -0.01533278	     -0.00371333	     -2.87711615	     11.41840831	     -5.94983906	     29.87513886	     65.48777492
      0.18333330	     -6.25740265	     -0.49104036	      0.19260161	      0.29264933	      0.93925744	     -0.05126986	      4.74829372	     -6.07410533	     -0.18888119	      2.92080252	      0.05097762	      5.73265053	      0.28779043	     -6.78647680	      4.35549385	     -4.82960812	     -3.27625522	      1.77089712	      0.03090799	      8.90248600	      0.85397348	     -6.78647680	      2.00599751	      0.05162535	     -2.91565303	      0.00818705	     -0.01471094	     -0.00493143	      6.72589155	      7.11712189	      1.76914892	     27.96055299	     71.50769883	      0.00529270	     -0.01265367	     -0.00447763	     -2.17598978	     11.79194595	     -5.70512735	     30.29445830	     65.15084836
      0.20000000	     -6.07436846	     -0.45042379	      0.16948739	      0.29312029	      0.93936683	     -0.05114767	      4.26400423	     -6.14814449	     -0.14054197	      2.22957844	      0.03891348	      5.42311954	      0.41952531	     -6.84228803	      3.85958555	     -4.68892326	     -3.18876839	      1.04288584	      0.01820179	      8.43377147	      1.07100860	     -6.84228803	      1.90642092	     -0.01202879	     -3.19890635	      0.00970555	     -0.01691677	     -0.00476475	      6.72306400	      6.85517123	      0.84506257	     28.06401340	     71.16739441	      0.00537806	     -0.01506939	     -0.00375931	     -2.71081603	     11.83359891	     -6.85224696	     30.67707350	     64.46744516
      0.21666670	     -6.00474933	     -0.44397394	      0.16915768	      0.29312156	      0.93935708	     -0.05114761	      4.12927890	     -6.18239321	     -0.18389589	      1.97851007	      0.03453152	      5.30710685	      0.43479447	     -6.90565843	      3.80940963	     -4.62434364	     -3.11422645	      0.94956741	      0.01657308	      8.26565479	      1.13952765	     -6.90565843	      1.68512696	     -0.07724276	     -3.21754430	      0.00964121	     -0.01687131	     -0.00474893	      7.64437266	      6.95413252	      0.21812058	     28.09971288	     70.95692858	      0.00539533	     -0.01475887	     -0.00378915	     -2.36079265	     12.13406658	     -7.23837911	     30.88425357	     63.97623022
